<svg xmlns="http://www.w3.org/2000/svg" width="1136" height="758" overflow="hidden"><defs><clipPath id="a"><path d="M72-19h1136v758H72z"/></clipPath></defs><g clip-path="url(#a)" transform="translate(-72 19)"><path fill="#005BA6" d="M73-18h1134v756H73z"/><path fill="#FFC224" fill-rule="evenodd" d="M678.672 407.434c-1.26-7.028-3.836-18.311-23.729-15.499 0 0-9.909-16.099-22.243-7.31 0 0-5.133 2.268-8.499 7.103 0 0-11.751-3.673-19.141 6.597 0 0-2.688 3.636-3.61 9.84 0 0-2.613.768-5.095 1.63-4.475 1.556-10.041 4.63-10.003 12.67 0 0-2.726 7.852 6.995 14.562 0 0 11.281 10.064 13.669 12.688 0 0 7.747 8.49 10.736 11.77 0 0 5.02 4.929 6.788 7.515 0 0 .695-4.292-2.313-10.664-3.629-7.684-11.676-17.954-14.045-19.81 0 0-2.745-3.467-3.78-6.128-1.053-2.643-.413-4.48 3.573-2.643 0 0 16.621 13.438 17.806 18.198 0 0 2.632-5.978-4.438-15.686l-6.449-9.371s-6.806-8.771 2.463-5.829c0 0 5.434 4.629 9.007 8.546 0 0 3.121 4.311 4.512 4.273.827-.019.508-2.399-.037-5.941 0 0-.414-9.483-.17-14.468 0 0 2.407-6.054 3.987.262 0 0 2.444 7.778 3.816 12.07 0 0 1.561 6.953 3.159-.469 0 0 2.181-6.147 4.25-10.439 0 0 5.396-7.871 4.982.862 0 0-1.015 8.078-1.88 13.044 0 0-.301 6.241 3.723.806 0 0 3.967-4.198 7.239-7.159 0 0 7.746-4.648 3.629 2.68 0 0-6.769 10.308-9.533 15.818 0 0-5.115 15.387 1.56 6.953 0 0 8.01-10.252 11.225-11.976 0 0 10.342-6.391 2.952 3.898 0 0-12.014 15.069-12.898 20.654 0 0-.752 2.474-.865 4.966 0 0-.32 6.86 5.095-1.63 0 0 6.525-6.429 13.143-12.52 4.4-4.048 9.063-8.452 11.094-8.865 0 0 15.474-8.658 7.239-20.297 0 0-3.498-5.791-11.695-4.929.018-.037-1.806-3.411-2.219-5.772m-1.731 96.707c23.818.49 36.037 7.362 36.037 7.362 4.869 3.37 9.926 2.353 9.926 2.353 12.726-3.803 8.873-15.288 8.873-15.288 8.459-6.514 3.834-14.892 3.834-14.892 9.287-10.863-3.458-19.637-3.458-19.637 6.109-9.771-11.148-16.229-11.148-16.229-.639-13.216-11.43-10.599-11.43-10.599C677.844 445.137 661 469.48 661 469.48s12.877-6.928 23.103-10.844c0 0 5.847-2.711 6.223.922 0 0 1.165 1.94-4.568 3.559 0 0-21.28 12.181-22.671 15.269 0 0 21.731-8.397 30.547-9.245 0 0 8.234-1.487 5.546 2.147 0 0-.583.828-5.752 2.24 0 0-18.479 6.044-25.566 10.11 0 0 20.828-2.786 27.088-2.485 0 0 3.685.17 3.61 2.222.112 2.184-.884 1.751-4.456 2.767 0 0-25.303 4.462-31.769 8.548 0 0 20.114-.941 28.856.113 0 0 4.943.075 7.481.904 2.125.696 1.955 3.633-1.428 3.784 0 0-23.047-3.596-33.443 4.067 0-.038 10.678-.151 13.14.583m12.118 14.785c-6.15-2.493-20.394-7.914-22.979-8.405 0 0 24.036-4.06 46.958 10.482 0 0 14.187 9.651 2.056 16.639 0 0 1.906 9.538-.264 15.582 0 0-4.527 5.93-10.263 7.554 0 0 2.189 13.806-8.829 17.074 0 0-8.622 2.436-15.508-1.681 0 0-9.999 11.823-22.583-1.53 0 0-12.904 3.173-15.13-9.689 0 0-2.113-25.156 2.207-36.772 0 0 5.339 16.79 7.528 20.681 0 0 2.452 7.913 5.867 5.949 0 0 2.641-1.057-.075-8.518 0 0-3.189-12.446-4.434-16.28 0 0 10.867 9.972 13.565 12.938 0 0 4.886 6.383 7.32 5.08 0 0 2.452-2.002-3.377-8.669 0 0-7.905-12.654-10.641-14.675 0 0 15.433 8.065 18.696 9.16 0 0 2.51 1.776 3.906 2.304 0 0 3.452 2.059 4.452.68 0 0 .585-2.342-2.169-3.89 0 0-16.414-12.598-18.018-13.372 0 0 18.225 3.928 20.81 4.287 0 0 6.735 2.437 4.169-3.343a31 31 0 0 0-3.264-1.586m-55.753 10.816s3.923 13.552-.17 33.492c0 0-.584 12.553-13.691 10.046 0 0-3.489 1.847-5.828 3.506-4.432 3.147-9.674 6.125-18.783-2.149 0 0-23.687 8.312-22.669-13.024 0 0-1.886-1.903-4.243-3.355-3.998-2.45-8.939-7.595-6.054-18.527 0 0-11.522-9.348.887-18.829 0 0 5.337-4.221 14.823-7.482 7.864-2.695 18.236-4.9 34.078-2.167 0 0-17.256 5.484-20.538 8.462 0 0-9.617 3.939-5.412 7.916 0 0 4.394.207 8.939-2.714 0 0 15.408-6.502 19.217-6.955 0 0-10.542 10.197-16.445 14.946 0 0-5.94 6.013-4.224 8.406 2.169 1.866 2.527.396 8.449-4.749 0 0 13.748-11.309 16.313-12.44 0 0-8.883 14.683-10.278 17.755 0 0-2.471 5.862-.717 6.974 1.622.621 2.207.188 5.771-4.072 0 0 9.637-14.173 11.164-16.454 0 0-2.546 14.023-4.149 17.736 0 0-.207 4.542 1.415 4.844.773.528 2.753.226 3.715-3.657zm-44.571-74.557c1.041-2.088 5.334.778 6.091 1.234 6.091 3.644 21.053 12.756 24.174 15.945 0 0-17.894-22.076-35.41-32.08 0 0-13.449-9.187-20.031 3.17 0 0-.908 1.196-2.27 1.481-4.559.968-14.187 3.36-12.106 15.888 0 0-.832 1.784-2.024 2.752-3.575 2.904-9.968 8.789-3.14 19.798 0 0-.189 1.215-.738 2.183-1.834 3.265-4.955 10.326 5.278 15.452 0 0-2.251 14.464 11.065 12.869 0 0 2.857-.189 7.68-2.164 0 0 3.329-1.006 6.734-2.221 2.743-.968 5.05-2.031 9.288-3.037 12.124-2.904 21.109-2.638 29.64-2.866 0 0-19.218-4.233-26.538-4.575 0 0-1.778-.341-2.819-.607-1.664-.437-2.932-.93-3.121-1.462-.34-.949.322-2.638 3.31-2.809 0 0 19.37-.987 25.631.266 0 0-20.202-6.663-24.534-8.447 0 0-4.88-1.974-5.542-3.113-1.097-1.917-1.475-2.278 5.145-1.974 0 0 21.904 3.891 26.879 5.713 0 0-17.402-12.547-21.696-14.957 0 0-4.653-1.804-5.826-3.759-.643-1.063.378-2.904 5.051-1.499 0 0 19.255 8.352 23.19 11.711 0 0-11.69-12.983-18.443-17.425.038 0-5.826-3.645-4.918-5.467"/><path fill="#FFC224" fill-rule="evenodd" d="M648.457 501.047C650.88 516.962 638.155 517 638.155 517c-14.501-3.202-9.216-20.67-9.216-20.67-2.175-7.692 2.118-17.601 2.118-17.601-2.27-5.797 3.263-15.024 3.263-15.024-1.641-5.76.725-15.138.725-15.138-1.946-12.732 3.262-15.024 3.262-15.024 10.379-3.941 6.926 14.872 6.926 14.872 4.178 5.893.344 19.61.344 19.61 3.51 6.479 2.422 15.914 2.422 15.914s4.179 5.892.458 17.108M469.383 201.498c-4.397-.434-5.303-2.038-5.303-2.038-8.038-4.942 2.963-4.64 2.963-4.64 5.076-1.433 4.774-2.226 4.774-2.226 3.378-2.735-2.265-3.357-2.265-3.357-3.302.226-6.604-.189-6.604-.189-4.264.359-5.642-1.094-5.642-1.094-4.133-3.885 1.981-3.716 1.981-3.716 2.359.057 5.208-.792 5.208-.792 3.322-.377 2.454-3.244 2.454-3.244.509-1.396-5.133-2.019-5.133-2.019-2.359-.056-6.133-.169-6.133-.169-3.944.679-6.699-2.226-6.699-2.226-.226-3.471 4.944-2.547 4.944-2.547 2.831.076 6.152-.302 6.152-.302 4.264-.358 2.925-3.225 2.925-3.225-.378-3.32-5.114-2.961-5.114-2.961-4.736.339-10.85-.302-10.85-.302-7.473-3.037.094-3.301.094-3.301 3.774.094 9.435-.208 9.435-.208 4.246.113 2.415-2.301 2.415-2.301.095-3.301-4.642-2.961-4.642-2.961l-6.604-.189c-8.963-.245-8.869-3.546-8.869-3.546-2.264-3.829 8.076-1.66 8.076-1.66 4.246.113 7.586-1.207 7.586-1.207 3.906-4.603-3.17-4.81-3.17-4.81-3.793.377-7.076-.189-7.076-.189-8.68.717-10.454-3.112-10.454-3.112-3.189-3.867 3.529-2.736 3.529-2.736l11.321.302c3.774.095 2.925-3.225 2.925-3.225.076-2.83-5.113-2.49-5.113-2.49-3.284-.566-7.058-.66-7.058-.66-7.529-.679-10.944-2.66-10.944-2.66-6.435-6.3 4.019-3.188 4.019-3.188 6.548 2.056 13.19.83 13.19.83 6.605.189 4.34-3.659 4.34-3.659.094-3.773-5.114-2.962-5.114-2.962l-9.435-.264c-9.453.679-17.265-7.073-17.265-7.073-3.189-4.339-3.793.377-3.793.377-.548 2.811-2.887 2.282-2.887 2.282-6.586-.66-26.286-5.432-26.286-5.432-43.137-9.205-49.816-24.484-49.816-24.484-5.001-6.734 4.302-1.773 4.302-1.773 3.245 2.452 8.85 4.49 8.85 4.49 17.134 12.26 64.138 19.202 64.138 19.202 31.475 5.583 60.384.698 60.384.698 11.397-2.528 17.455.471 17.455.471 9.812 3.565 13.058 11.601 10.774 20.579-1.66 6.451-4.661 14.977-4.661 14.977-6.189 19.637-3.019 41.423-3.019 41.423 1.472 15.128 16.53 16.958 16.53 16.958 7.51 1.15 17.945-.453 17.945-.453 7.529.679 17.512-1.886 17.512-1.886 5.774-4.094-2.189-6.187-2.189-6.187-5.699 1.263-1.831-2.415-1.831-2.415 4.322-2.716 6.831-8.299 6.831-8.299 1.944-2.302-.849-3.32-.849-3.32-5.623-1.566-1.679-7.602-1.679-7.602 1.509-3.735-1.265-5.225-1.265-5.225-1.868-.528-5.17-.604-5.17-.604 1.925-1.358 6.812-7.828 6.812-7.828 2.453-3.715.113-4.244.113-4.244-6.529-2.527.755-10.355.755-10.355 1.547-4.678-.264-7.564-.264-7.564-2.302-1.943-2.604-8.564-2.604-8.564-.849-3.32-3.717-2.452-3.717-2.452l-1.944 1.83c-1.944 1.829-3.057 7.941-3.057 7.941-.396-2.849-5.189-5.64-5.189-5.64-5.491-3.942-1.981-6.508-2.397-10.13-.377-3.319 1.132-6.583 1.132-6.583 1.416 6.018 10.568 10.658 10.568 10.658l2.83-.245c.661-1.075 1.849-1.49 3.227-3.056s2.944-4.32 2.944-4.32c1.943-2.15 1.717-5.621 1.717-5.621-6.209-3.32-6.076-8.035-6.076-8.035-.321-11.016 13.095-6.885 13.095-6.885 2.623-3.697 12.19-6.998 14.096 2.584 1.378 6.96-3.604 10.752-3.604 10.752-2.019 4.659 8.095 8.563 8.095 8.563 4.359 2 6.265.793 6.265.793l4.397.113-1.265 6.093c-1 1.867-.038 7.073-.038 7.073-.584 4.225 5.284 8.168 5.284 8.168 7.284-7.357 11.322-5.829 11.322-5.829-2.378.415-3.755 5.093-3.755 5.093-2.415 2.301-.208 7.545-.208 7.545.736 7.564-7.17 3.112-7.17 3.112-1.397-.509-4.246-.113-4.246-.113-4.717-.132-8.038.717-8.038.717l7.283-7.356c1.944-2.302-.339-5.207-.339-5.207-1.378-1.452-1.642-8.695-1.642-8.695.094-3.301-2.717-4.169-2.717-4.169-2.321-1.471-4.095-.113-4.095-.113-1.887.264-1.076 4.697-1.076 4.697 3.491 4.338.397 8.809.397 8.809-1.623 1.527-2.982.886-3.774.056-.755-.811-.397-2.527-.397-2.527 1.359-3.886.359-7.696.359-7.696-2.132-2.886-5.038-.132-5.038-.132-1.302 1.848-3.529 2.735-3.529 2.735-4.548 4.904-.038 12.902-.038 12.902.887 2.226 5.793 7.073 5.793 7.073 4.322 2.943-.415 3.754-.415 3.754-5.057 1.113-.151 5.659-.151 5.659 1.849 1.301 8.624 7.149 8.624 7.149-6.926.434-5.774 4.244-5.774 4.244.471.754 1.509 3.584 3.623 5.451 3.302 2.886 8.038 4.942 8.038 4.942l-4.453 1.773c-2.076.623-3.189 2.358-2.019 4.659 3.113 6.131 16.228 16.166 16.228 16.166l-9.435-.264c-1.623 1.528-.51 7.224-.51 7.224 1.529 1.622 2.359 5.734 2.359 5.734s14.322 28.691-3.679 42.668c0 0-3.812 1.15-5.775 4.244 0 0-1.396 2.565-3.302 5.564-3.057 4.848-8.642 11.28-21.134 13.261 0 0-9.322 1.339-18.927 1.999-5.661.397-14.492.868-14.492.868s-4.585.396-8.208 1.038c-5.189.905-10.322 2.716-13.435 7.809 0 0-5.171 4.885-.283 10.054 0 0 8.095 3.357 2.924 8.261 0 0-7.019 3.584-9.982-3.414 0 0-4.793-8.941 5.171-16.523 0 0 7.397-5.772 13.095-7.508 0 0 7.718-6.074-1.736-5.715 0 0-23.361 3.131-41.91-9.318 0 0-2.585-3.056-8.151-.849 0 0-10.152 3.018-16.813 16.523 0 0-2.774 3.698-5.303 9.771 0 0-2.057-10.902 13.511-27.935 0 0 .962-.925 2.453-3.245 0 0 2.963-4.64-2.264-3.829 0 0-7.152 2.641-13.851 6.225 0 0-2.415 1.83-4.302 2.245 0 0-1.982 3.244-5.68.32l-2.774-2.433s-3.208-3.395 1.585-6.093c0 0 1.944-1.829 4.34-3.187 0 0 3.869-3.188.566-3.754 0 0-1.528-1.019-3.264-1.509-5.265-1.49-16.907-3.282-32.173 2.905 0 0-11.888 3.131-22.399 19.824 0 0-8.925 15.487-10.416 24.239 0 0-.962-22.673 11.794-40.253 0 0 .981-1.547 2.302-3.716 0 0 3.113-3.81 1.057-4.489-1.529-.887-1.944-.095-4.095.622 0 0-1.51 1.188-2.567 2.132-3.188 2.81-8.925 7.469-16.227 6.79 0 0-6.907-.509-9.549-7.488 0 0-1.283 1.226-5.679.471 0 0-3.435 10.601 6.604 11.507 0 0 5 1.395 9.416.886 0 0 6.982-2.32 3.661 4.508 0 0 .453 6.3-8.303 4.81 0 0-5.038-.132-9.378-2.15 0 0-9.964-4.037-13.304 3.414 0 0-.773 5.018-2.151 9.375 0 0 .831 15.75-1.943 25.106 0 0-3.925 5.546-7.114 6.734 0 0-2.793 9.978-.472 16.977 0 0-.717 3.131 1.113 5.696 0 0 4.227 6.413-.358 13.204 0 0-2.755 8.733 2.189 12.016 0 0 6.717 7.733-1.057 15.693 0 0-6.416 4.867-.925 10.677 0 0 1.302 3.64 2.378 5.093 3.246 4.357 7.227 12.147-.472 16.976 0 0-1.981 3.094-3.868 3.659 0 0-4.529 4.282-.925 10.658 0 0 5.51 5.81.887 13.864 0 0-1.509 9.394 1.547 12.619 0 0 3.133 4.074 4.831 7.677 3.567 7.64 4.34 7.979-.396 14.449 0 0-3.34 6.828.283 12.582 0 0 6.661 9.619-.396 14.448 0 0-2.661 5.584-.264 9.432 0 0 8.623 6.526 3.943 17.089 0 0-1.566 11.28 2.151 13.261 0 0 9.681 14.109 25.003 6.338 0 0 9.567-4.772 4.85-16.222 0 0-4.152-9.545-9.926-5.301 0 0 1 9.47-4.038 9.319 0 0-8.642-5.904.34-12.563 0 0 3.811-2.886 6.661-2.339 3.792.736 5.981 2.754 8.038 4.942 2.038 2.15 3.359 4.074 4.774 9.563 0 0 2.302 8.244-5.415 14.317-3.51 2.754-6.756 5.791-17.379 2.981 0 0-8.718-3.377-14.87-8.583 0 0-1.075-1.132-2.717-1.641s-3.567 1.151-6.114 2.037c0 0-3.812 1.151-.755 4.376 0 0 3.283 6.376.227 15.109 0 0-.944 11.62 1.226 12.921 0 0 2.566 9.658 10.209 6.565 0 0 2.849-.396 2.943-4.169 0 0 .736-1.151-1.566-3.112 0 0-1.736-1.774-.622-2.849.339-.603 1.283-.603 2.358.302 0 0 6.454 5.829-.339 12.261 0 0-5.775 4.093-11.719-2.679 0 0-6.019-4.414-5.717-15.26 0 0 .094-3.15.66-7.054 0 0 2.491-5.112-1.075-12.299 0 0-3.321-4.961-6.397-7.564 0 0-5.623-1.414-5.416-8.959 0 0-6.736-6.47-2.755-14.544 0 0 .698-2.49.17-6.281 0 0-2.925-2.282-.321-11.336 0 0 1.906-.736-1.094-5.697 0 0-4.737-5.168.188-12.581 0 0 2.963-5.112.265-9.432 0 0-6.529-2.527-1.963-14.675 0 0 2.057-6.074.264-9.431 0 0-6.963-3.962-.585-13.223-.886-2.075-.075-8.658-.075-8.658.698-2.49.094-3.452.094-3.452-3.34-4.489-.604-12.28-.604-12.28.151-5.338-4.34-2.64-4.34-2.64.246 2.527-3.264 4.319-3.264 4.319 1.132 4.754-3.755 10.903-3.755 10.903-2.661 5.281-.038 12.902-.038 12.902 6.057 8.658-2.321 15.656-2.321 15.656-3.283 4.942 1.887 11.374 1.887 11.374 5.51 5.81.962 10.714.962 10.714-1.943 2.301-.585 4.225-.585 4.225 5.039 5.32.17 11.318.17 11.318-1.943 1.83-.132 5.187-.132 5.187 7.756 10.111-.981 18.373-.981 18.373-1.227 1.622.34 3.018 1.264 5.225.944 2.207 1.264 5.225 1.264 5.225 6.02 4.413 2.057 11.374 2.057 11.374-1.547 4.678.717 8.035.717 8.035 5.548 4.395.642 11.337.642 11.337-1.963 2.773.792 5.678.792 5.678 4.529 7.205 3.322 16.599 3.322 16.599 4.226.585 4.151 3.414 4.151 3.414 17.266 7.073 20.398 30.746 20.398 30.746 1.51 9.45 5.605 14.392 8.492 16.769 1.736 1.434 6.246 3.226 7.491 3.094 3-.321 4.642-2.943 4.642-2.943 3.283-5.263-2.623-7.621-2.623-7.621-1.868-.528-2.906 0-3.472.661-.679 1.98-1.585 2.075-1.944 2.225-2.622 1.076-2.755-2.791-2.755-2.791.434-4.697 4.02-5.942 4.02-5.942 6.132-1.17 9.737 2.546 11.171 5.734.849 1.868.603 3.792.603 3.792-.339 12.26-10.699 11.978-10.699 11.978-16.454-2.339-18.02-14.336-21.002-26.05-.906-3.546-.736-7.564-.736-7.564-.641-11.336-8.057-15.788-8.057-15.788-5.491-6.432-10.699-5.489-10.699-5.489-5.699 1.094-2.378 6.545-2.378 6.545 2.378 5.093 11.096 8.47 11.096 8.47-6.699 14.92-19.625 4.489-19.625 4.489 4.17-2.716 4.925-7.734 4.925-7.734 2.679-6.224-2-7.281-2-7.281-5.284-2.659-8.265 3.226-8.265 3.226-1.982 3.716-1.189 6.753-.491 10.676.245 1.415 1.359 2.622 1.679 3.829a208 208 0 0 1 1.133 4.433c2.811 12.336-5.114 14.807-5.114 14.807-13.341 4.358-15.888-5.621-15.888-5.621-3.039-9.997.66-12.562.66-12.562 7.699-5.452 4.17 8.299 4.17 8.299-1.415 5.621 3.585 7.017 3.585 7.017 5.624 1.415 6.378-2.961 6.378-2.961 5.152-4.263-.283-12.582-.283-12.582-4.811-8.299.642-23.258.642-23.258-5.567-3.301-5.982-11.166-5.982-11.166-1.849-1.302-3.377-3.245-3.377-3.245-9.567-6.866-2.397-15.788-2.397-15.788 2.321-4.338-.453-6.3-.453-6.3-3.736-1.679-4.321-3.263-4.321-3.263-4.076-2.962-5.227-7.394-4.415-10.809 1.132-4.866 5.264-8.657 5.264-8.657 1.717-4.98-.094-8.187-.094-8.187-11.416-8.167-1.227-24.257-1.227-24.257-1.151-4.112.321-23.258.321-23.258 1.132-6.583-4.604-3.905-4.604-3.905-2.265 1.302-6.812 5.584-10.001 9.168-2.68 3.018-4.246 5.545-4.246 5.545-7.529 10.488 2.113 14.525 2.113 14.525 4.397.113 2.416 3.527 2.416 3.527-1.623 1.848-5.038.17-5.038.17-8.114-2.113-8.548-9.677-8.548-9.677 0-11.318 8.906-17.882 15.284-23.956 2.736-2.603 5.34-5.508 5.34-5.508-2.075-10.431 6.529-20.107 6.529-20.107 1.963-2.471 2-4.339 2-4.339-1.679-7.601 4.812-14.958 4.812-14.958 2.642-4.338 2.699-6.847 2.699-6.847-4.076-12.053 3-17.523 3-17.523 3.887-4.301.868-9.092.868-9.092-4.265-4.829-1.264-11.035-1.264-11.035 2.585-3.867 1.49-7.413.283-10.054-.642-1.377-1.491-3.188-1.491-3.188-5.189-5.489-.509-16.052-.509-16.052 2.358-5.602 1.264-5.791.188-6.922-.924-.962-4.095-.114-4.095-.114-4.736.812-3.981 7.753-3.981 7.753 1.755 5.074-1.529 10.016-1.529 10.016-2 4.357.378 9.45.378 9.45 7.303 8.998.792 16.996.792 16.996-.717 3.131-.113 4.395-.113 4.395 2.944 7.62-2.264 13.769-2.264 13.769-3.246 3.679-.981 13.186-.981 13.186-.529 7.846-5.642 10.544-5.642 10.544-5.19 5.527-4.171 14.675-4.171 14.675.397 8.809-3.377 14.298-3.377 14.298-9.586 13.883-21.078 2.49-21.078 2.49-4.151-3.414-3.283-7.375-2.793-9.752 1.095-5.395 6.756-5.716 6.756-5.716 4.264-.584 4.793 2.283 4.396 3.415-.321 2.829-2.962 2.282-2.962 2.282-3.114-1.037-4.454 1.773-4.454 1.773-1.188 9.092 7.945 8.715 7.945 8.715 7.849.207 8.925-4.471 8.925-4.471 3.246-3.376 2.925-14.694 2.925-14.694.528-8.167 1.717-10.091 3.491-12.487.585-.792 1.66-3.094 1.66-3.094 2.303-3.395.963-12.543.963-12.543-.849-3.792-4.661-2.019-4.661-2.019-5.208 6.47-13.662 4.98-13.662 4.98-15.964-2.942-10.869-16.807-10.869-16.807 7.322-8.771 12.303-1.546 12.303-1.546-8.17-.378-9.605 5.866-9.605 5.866-.301 11.318 12.492 9.299 12.492 9.299 6.19-1.716 4.774-4.112 6.303-6.432 1.113-1.697 2.415-2.301 2.415-2.301-5.095-3.433-2-13.26-2-13.26.094-3.301-1.661-8.074-1.661-8.074-1.679-7.601-7.868-5.395-7.868-5.395-3.302-.094-7.095.755-7.095.755 13.529-11.902 12.831-20.41 12.831-20.41 3.416-9.657.17-17.919.17-17.919-2.434-2.905-3.661-3.867-3.661-3.867-5.189-6.111-.566-14.166-.566-14.166.698-2.188.132-5.036.132-5.036.434-16.034 6.491-18.693 6.491-18.693 3.095-1.547 3.793 2.112 4.567 5.47.887 3.886.359 9.941.264 13.223-.094 3.772-.151 5.659-.151 5.659 3.34 4.187-.113 16.033-.113 16.033 3.623 5.753-.076 14.147-.076 14.147-.339 2.282-.811 4.602-.849 7.847-.037 3.867.397 8.507.397 8.507 1.188 2.546 1.49 14.505 1.49 14.505-.207 7.546 2.963 6.998 2.963 6.998 4.396.114 4.51-3.659 4.51-3.659 1.962-3.093-.264-13.223-.264-13.223-2.453-2.263-1.68-6.111-1-9.469.358-1.811.094-3.772.094-3.772-2.378-5.093.962-11.922.962-11.922 1.34-3.112.151-5.658.151-5.658-1.906-3.264-.679-6.433.264-9.432.529-1.697.755-4.376.755-4.376a201 201 0 0 0-2.302-8.243l.887-9.412c1.396-4.999-.415-8.187-.415-8.187-3.472-10.789 2.245-13.147 2.245-13.147 3.887-4.301 4.359 1.377 4.359 1.377 3.623 5.753-.151 16.976-.151 16.976-1.377 4.056 1 9.149 1 9.149 2.114 3.206 1.944 9.167 1.944 9.167.792 5.376 4.038 1.679 4.038 1.679 4.208-4.603.906-10.356.906-10.356-3.057-3.546-2.189-12.317-2.189-12.317 1.981-3.716 1.226-10.337 1.226-10.337-1.679-7.602 4.756-9.771 4.756-9.771 3.811-1.075 6.51-5.017 6.51-5.017 1-1.868 1.981-3.716 1.981-3.716.283-1.887 8.039-8.979 8.039-8.979 2.924-3.452.151-5.414.151-5.414-2.963-3.621-8.039.246-8.039.246-2.887 2.282-7.699 5.677-7.699 5.677-2.434 2.999-14.001 11.884-14.001 11.884C235.51 292.435 225.773 295 225.773 295c-15.304 7.13-26.437.453-26.437.453-9.755-5.923-3.151-14.241-3.151-14.241 3.585-1.792 3.755.811 3.755.811-1.453 1.377-1.981 3.244-1.981 3.244-1.397 7.753 9.472 7.338 9.472 7.338 7.095-.283 11.436-4.169 11.436-4.169 4.528-2 12.982-8.601 12.982-8.601 16.926-15.11 30.607-23.22 30.607-23.22 11.058-7.715 24.134-10.903 24.134-10.903 3.793-.377 5.435.113 5.076 1.169-.207 2.038-2.604 3.075-2.604 3.075-1.604.905-2.566 2.131-2.566 2.131-1.396 4.999 4.642 2.641 4.642 2.641 3.151-.226 4.755-1.452 4.755-1.452 4.812-3.32 5.152-4.584 5.152-4.584 3.585-4.3-2.321-6.979-2.321-6.979-2.831-.075-3.737-1.679-3.737-1.679-1.849-1.622-5.34-.453-5.34-.453-1.283 1.227-3.491 1.472-3.491 1.472-4.491 3.018-6.246-1.736-6.246-1.736.755-4.696 5.831-6.13 5.831-6.13 5.114-2.999 14.153.076 14.153.076 1.226 1.282 4.396.433 4.396.433 1.434-2.037 7.699-1.546 13.87-1.188 5.057.283 10.378.283 10.378.283 2.208-.264 1.057-4.056 1.057-4.056-2.189-.377-2.472-1.961-2.472-1.961-2.793-1.641-5.661-.151-5.661-.151-5.114 2.999-8.473-.868-8.473-.868-3.094-1.66-6.283-.17-6.283-.17-5.133 3.641-10.982-.924-10.982-.924-1.888-.905-3.624-.641-3.624-.641-2.396 1.829-7.113 1.226-7.113 1.226-.982 1.396-2.888 1.811-2.888 1.811-1.037 3.753-7.246 5.941-7.246 5.941-3.377 2.735-3.943 6.018-3.943 6.018-.17 5.998-3.491 7.073-6.36 8.318-2.321 1-4.302 1.773-4.302 1.773l-2.906 2.754c-2.566 7.47-6.246 4.074-6.246 4.074-3.151-5.281 3.623-11.694 3.623-11.694 1-2.339 2.472-4.188 2.472-4.188 1.132-6.583 8.265-8.733 8.265-8.733 2.887-1.811 4.378-5.074 4.378-5.074 4.812-3.641 2.038-5.603 2.038-5.603-2.717-3.848-5.661-.151-5.661-.151-1.491 2.792-4.85 5.056-4.85 5.056-3.434 5.093-7.246 5.941-7.246 5.941-2.396 1.359-3.415 4.15-3.415 4.15-1.661 8.922-4.472 8.375-4.472 8.375-4.378 5.074-2.302 15.505-2.302 15.505.245 3.075-.397 5.037-1.416 6.244-2.622 3.093-4.962 2.075-4.962 2.075-5.68.321-6.001-4.886-6.001-4.886-20.832 2.736-24.908-3.98-24.908-3.98 25.587-3.546 28.55-8.658 28.55-8.658 1.679-1.131 1.698-3.791 2.529-6.526.849-2.754 2.509-5.583 2.509-5.583-1.887-.057-3.717-1.981-3.717-1.981-7.944-2.584-14.417-7.941-14.417-7.941-20.775-14.751-19.983-26.521-19.983-26.521 10.416 16.316 39.948 23.729 39.948 23.729 6.113 1.113 8.472 1 10.85-.17 2.396-1.169 2.906-2.754 2.906-2.754 2.962-3.565 5.906-5.187 8.189-6.375a186 186 0 0 0 3.359-1.792c.057-1.887 2.434-2.773 2.434-2.773-6.944-4.904-15.077-18.335-15.077-18.335-14.926-23.521-9.359-37.518-9.359-37.518.056 5.433 6.227 19.655 14.303 29.634 4.227 5.244 9.19 10.902 13.285 14.505 6.396 5.64 11.114 7.847 11.114 7.847 4.208 1.528 8.076-1.66 8.076-1.66 6.265-4.546 12.228 1.283 12.228 1.283 2.321 1.471 6.585 1.132 6.585 1.132 3.303.094 3.812-1.321 3.812-1.321 5.246-1.735.661-7.054.661-7.054-2.321-1.472-3.642-4.81-3.642-4.81-9.983-14.43-.208-27.37-.208-27.37 7.812-9.696 13.832-5.282 13.832-5.282-12.398 4.376-10.379 17.165-10.379 17.165 1.416 6.621 5.039 13.657 8.492 17.222 4.717 4.866 9.303 4.98 9.303 4.98 8.038-.246 12.623 4.112 12.623 4.112 2.774 2.433 10.341 1.697 10.341 1.697 3.623-.358 6.869 2.547 10.718 5.018 4.208 2.678 8.831 4.961 8.831 4.961 6.529 2.999 11.756 1.264 11.756 1.264 4.284-1.302-1.302-4.282-1.302-4.282-3.283-.566-5.151-1.547-5.151-1.547-12.624-4.112-28.248-20.108-28.248-20.108-8.775-7.318-5.718-15.26-5.718-15.26 2.227-12.204 14.907-9.978 14.907-9.978 6.85 1.962 8.586 6.206 9.643 10.167 2.132 8.073-6.51 13.977-6.51 13.977 4.057 7.187 12.397 12.601 12.397 12.601 12.907 11.204 29.928 9.77 29.928 9.77 2.887-1.81-4.982-7.677-4.982-7.677-6.019-3.942-11.058-9.733-11.058-9.733-17.341-21.692-11.661-22.484-11.661-22.484 15.379 24.484 49.137 32.481 49.137 32.481 24.399 5.376 41.608-3.112 41.608-3.112 2.736-2.018-.698-2.414-.698-2.414M230.66 418.136s-4.812 3.641-14.681 1.962c0 0-.754 10.355 12.7 18.749 0 0 .679-7.526 3.736-15.939 0-.018 4.887-6.488-1.755-4.772m-15.115-68.83s-4.491-8.62-15.511-2.301c0 0-4.925 5.319-3.151 11.713.774 2.755 3.095 7.64 7.322 8.225 0 0 7.85 6.337 17.19-7.074 0 0 5.454-9.752 2.34-16.448 0-.019-2.151 9.356-8.19 5.885m103.049 80.657s5.698 16.203 20.417 12.827c0 0 13.303-2.943 7.095-17.731 0 0-4.51-7.677-14.058-3.678 0 0-2.378.414-3.887 4.13l-1.906.887s-2.302-1.943-3.661-3.867c0 0-2.793-1.49-4.736.811-.038 0-2.472 2.754.736 6.621m7.133-106.273c-5.624-1.414-6.416 4.848-6.416 4.848-.321 5.414.321 9.299.981 11.733.566 2.075 2.208 5.904 2.83 7.262 7.982 17.523 24.437 29.878 24.437 29.878-8.265-10.487-9.227-14.863-13.53-24.578-.453-.999-2.849-6.432-3.415-8.016-2.717-7.677-3.189-14.185-3.189-14.185 1.113-6.225-1.698-6.942-1.698-6.942m18.605-13.317s-7.68-18.447-4.283-27.784l-8.794-.868c.019-.019 1.321 21.409 13.077 28.652m43.118-12.034L384.336 297c-3.717-1.981-5.095 2.376-5.095 2.376-11.623 10.997-14.152 34.217-14.152 34.217 1.434-6.243 19.625-27.766 19.625-27.766 7.076-4.866 2.736-7.488 2.736-7.488m-5.189-29.086c-.755-.132-2.567 1.509-2.038 5.602 0 0 .887 13.543 20.228 19.428 0 0 16.172 2.509 17.511-13.053.132-1.584-1.924-16.089-17.643-10.393 0 0-2.849.868-4.415 6.489 0 0 .83 4.263-3.435 5.093 0 0-5.227 1.113-7.472-8.696-.019 0-.529-4.093-2.736-4.47m116.766-87.712s.302-11.318 7.473-19.07c1.019-.925 5.698-4.791 7.812-5.037 2.076-.245 6.925-3.47 8.699-7.79 1.057-2.584 1.321-5.546-1.661-8.545 0 0-8.227-9.658-15.643 2.396.019.019-9.869 16.259-6.68 38.046M322.67 556.966s-.265 9.903-.85 13.656c0 0 10.775 3.132 12.964-8.129.019 0-7.963-2.113-12.114-5.527m235.288-454.328c-1.246-.339-2.812-1.018-2.812-1.018-5.019-.453-5.378 1.112-5.378 1.112-4.245 5.546 2.906 8.885 2.906 8.885 3.076 2.282 9.077 1.811 9.077 1.811 2.868-1.491 5.17-4.886 5.17-4.886 3.925-5.545 1.17-8.45 1.17-8.45-4.887-5.169-8.529 1.339-8.529 1.339zm5.548 15.562c-3.699-2.622-6.02 1.716-6.02 1.716-3.849 2.415-.472 5.64-.472 5.64 3.699 2.924 6.001-.773 6.001-.773.962-.604 2.434-2.528 2.321-4.018-.132-1.49-1.83-2.565-1.83-2.565m-11.964 116.043c1.528-1.018 1.755-3.867 1.415-5.47 0 0 2.151-9.375 7.944-14.411 0 0 8.832-12.034-2.641-6.677 0 0-8.624 4.961-10.36 16.222 0 0-.698 7.997-6.378 8.79 0 0-13.492 10.016-14.605 16.58 0 0-1.604 6.564.755 7.092 1 .227 3.811-1.32 5.83-6.451 0 0 4.944-8.507 12.605-12.393 0 .019 3.19-1.773 5.435-3.282m-15.624-14.524c-3.114-.283-5.944 3.716-5.944 3.716-5.756 3.622-9.416 16.731-9.416 16.731-3.34 1.321-8.85 12.959-8.85 12.959-3.095 9.827 2.604 8.564 2.604 8.564 3.321-.378 4.434-6.961 4.434-6.961 1.604-7.035 10.284-13.864 10.284-13.864-1.264-5.225 6.114-16.806 6.114-16.806a7.4 7.4 0 0 0 1.717-1.774c.717-1.113-.396-2.508-.943-2.565m-26.21 25.955s4.642-8.677-6.19-3.942c0 0-7.17 3.414-14.133 10.299 0 0-2.755 3.225-3.755 5.093 0 0 3.17 4.81 5.529 4.866 0 0 5.359-6.451 11.171-11.487 0 0 6.075-3.282 7.378-4.829m-10.737-10.355s5.491-5.357 10.586-7.734c0 0 10.529-5.376 2.547-6.998 0 0-4.265.358-10.473 3.489 0 0-7.208 4.999-12.567 10.978 0 0-5.359 6.451-2.114 8.432 0 0 4.19 2 8.133-4.018 0 0 1.944-2.32 3.888-4.149m-26.607-10.62s6.661-2.169 10.907-2.056c0 0 4.623 3.263 8.831-1.019 0 0 3.019-7.149-8.624-6.526 0 0-8.51.716-13.34 4.357 0 0-6.265 4.546-2.548 6.998 0 0 2.812 1.019 4.774-1.754m-15.662 14.826c1.623-1.528 4.793-2.697 4.793-2.697 2.227-1.189 7.623-2.622 7.623-2.622 5.397-1.736 2.321-4.659 2.321-4.659-1.811-2.566-5.321-.774-5.321-.774-6.661 1.698-8.906 3.848-8.906 3.848s-3.831 2.094-5.491 4.886c0 0-1.623 1.848.226 3.15 0-.019 2.132 2.886 4.755-1.132m-11.737-19.504c-.094 3.772 3.812 4.508 3.812 4.508 4.736-.811 9.642-1.943 9.642-1.943 3.68-1.943-.962-5.376-.962-5.376-5.302-1.716-8.51.717-8.51.717-1.906.887-3.982 2.094-3.982 2.094m-3.17.528a2.513 2.513 0 0 0-2.585 2.452 2.51 2.51 0 0 0 2.453 2.584 2.513 2.513 0 0 0 2.585-2.452 2.525 2.525 0 0 0-2.453-2.584m-39.551 19.693s21.323 2.471 26.38 1.98c0 0 3.453.415 5.378-1.113 3.17-2.489.094-3.772-3.623-5.753 0 0-7.51-1.773-9.586-5.923 0 0-3.17-4.81-6.095-1.584 0 0-.51 1.396-.566 3.282 0 0 .358 4.263-4.284 1.301L404.753 229s-5.434-2.66-6 1.094l.226 2.999s-.415 3.603-5.378.962l-4.019-2.622s-2.736-3.377-6.585-1.132c0 0-3.793.849.377 3.791 0 0 1.321 3.811 7.869 5.395.019-.019 8.34.208 11.001.755m-10.756 8.186c.415 2.377 7.982 1.641 7.982 1.641 3.793-.849 12.284-.603 12.284-.603 2.925-.755 9.605.641 16.643.924 1.831.075 6.492.868 7.397-.264 2.925-3.697-4.094-5.301-4.094-5.301-3.737-1.358-14.436-1.641-14.436-1.641-12.416-.49-19.058.736-19.058.736-10.36-.302-6.718 4.508-6.718 4.508m-47.024-12.28s11.171.151 19.172.831c0 0 3.604.188 6.284.169s4.415-.264 4.472-2.395c0 0 2.019-4.659-6.982-3.49 0 0-6.208 2.509-9.397-1.207 0 0-1.963-2.735-4.887.339 0 0-4.812 3.641-10.341-1.226 0 0-3.963-4.829-6.567-1.754 0 0-4.151 2.396 1.868 6.338 0 .019 3.887 2.018 6.378 2.395m-37.23-16.014c.944.076 3.416.585 4 .321 1.001-.434 2.227-1.434 2.265-2.132.396-3.131-2.717-4.168-2.717-4.168-4.661-2.019-7.246.433-7.246.433-4.454 2.075-8.492-.226-8.492-.226s-4.623-3.584-10.341-1.226c0 0-5.038.49-5.755 3.622-.17.773 1.51 2.565 4.661 2.32 0 0 5.057-1.113 9.076 1.811 0 0 5.303 1.395 8.19-.415-.019.018 3.529-.585 6.359-.34m9.794 41.838c2.736 3.376 6.623-.755 6.623-.755 2.396-1.358 5.755-3.622 5.755-3.622 4.302-1.773 2.491-5.111 2.491-5.111-2.283-2.886-7.586 1.207-7.586 1.207-2.415 1.83-3.849 2.716-3.849 2.716-7.152 3.584-3.434 5.565-3.434 5.565m-22.493 11.185c-1.472 1.849-2.491 4.659-2.491 4.659-1.208 9.865 3.642 4.81 3.642 4.81 2.849-.396 4.793-2.697 4.793-2.697 5.396-7.394.754-10.356.754-10.356-3.679-2.942-6.698 3.584-6.698 3.584m-10.039 56.815c3.51 9.997-2.302 15.505-2.302 15.505-2.057 6.074 1.189 8.526 1.189 8.526 3.66 3.867-1.208 9.394-1.208 9.394-4.378 4.602 1.151 9.469 1.151 9.469 1.793 3.357 6.416 7.243 6.416 7.243 2.811 1.018 2.453-3.716 2.453-3.716-1.736-5.244 1.717-10.808 1.717-10.808 1.491-2.792-.717-8.508-.717-8.508-4.133-3.885.302-11.317.302-11.317 1.981-3.716-.283-7.093-.283-7.093-5.057-4.847-.095-13.675-.095-13.675 1.982-3.716 1.68-9.865 1.68-9.865-.34-4.735 2.642-10.299 2.642-10.299 1.566-5.621-4.189-2.471-4.189-2.471-1.076 4.697-3.416 4.149-3.416 4.149-2.491 5.112-3.944 6.018-3.944 6.018-1.849 1.754-3 6.432-3.132 10.77-.057 3.32 1.736 6.678 1.736 6.678m-10.322-36.613s2.151-9.846-4.095-5.772c0 0-2.811-.547-2.604 8.885 0 0 .17 10.846.095 14.147 0 0-1.114 6.111 3.623 5.753 0 0 3.302.094 2.981-5.584 0 .019-.038-16.014 0-17.429m.321 40.102s3.113-10.45-2.585-9.035c0 0-2.529.566-2.038 5.602 0 0-.076 2.83-1.566 5.621 0 0-1.001 2.339-.133 4.716 0 0 3.114 7.168 1.076 12.77 0 0-2.849 6.527.415 8.036 0 0 4.001 3.565 5.586-3.15 0 0-1.321-3.66.641-6.433 0 0 1.925-1.528.623-5.809 0 0-4.51-7.659-2.019-12.318m182.452-91.427c-2.604 3.074-.15 5.659-.15 5.659.83.999 2.717 2.923 4.283 4.206a40 40 0 0 0 4.623 3.263c6.831 3.339 7.529.528 7.529.528 1.472-1.999.906-3.15-.207-4.093-1.114-.943-2.793-1.641-2.793-1.641-2.472-1.32-8.322-6.508-8.322-6.508-2.094-3.225-4.963-1.414-4.963-1.414M282.345 391.389c-1.661 3.093-.831 7.526-.831 7.526 1.095 6.319 6.831 3.018 6.831 3.018 1.416-.849 2.114-1.981 1.982-3.414-.227-3.15-1.774-4.452-1.774-4.452-1.528-1.301-2.774-2.282-2.774-2.282-.868-1.905-3.434-.396-3.434-.396m-5.02-.132s1.812-2.867.944-6.036c0 0-.906-7.187-5.378-4.791 0 0-2.887 1.81-.793 5.96 0 0 .812 4.735-2.094 7.489 0 0-3.68 7.771-.981 12.864 0 0 1.943 9.809-2.265 14.09 0 0-1.056 4.377-.792 6.263 0 0 1.66 8.224-.925 10.978 0 0-1.811 9.073 1.604 10.431 0 0 5.133 2.339 3.925-5.546 0 0 .547-2.584 2.491-5.036 0 0 1.962-2.546.358-7.451 0 0-3.755-6.79 1.623-13.713 0 0 .849-1.999 1.283-3.98.453-1.981.51-3.923-.396-5.508.019-.019-2.868-9.525 1.396-16.014m-4.264 156.504c-3.057-3.226-.755-12.921-.755-12.921 1.811-3.094-.302-6.149-.302-6.149-3.246-2.453-1.17-8.998-1.17-8.998.566-3.282-1.226-7.111-1.226-7.111-2.793-1.49-2.359-17.524-2.359-17.524-2.717-4.319-.245-8.507-.245-8.507 1.037-3.753-.246-8.035-.246-8.035-3.698-2.924-.943-11.507-.943-11.507s3.094-9.355-3.567-7.96c0 0-1.302 1.849-2.415 7.489 0 0-1.076 4.999-.547 8.79 0 0 .641 6.375.151 11.619-.113 1.245.056 4.735.604 6.527.207.717.415 1.49.566 2.32.698 3.81.754 6.941.037 10.374 0 0 .208 3.773.812 5.056 0 0 2.698 4.791 1.641 8.846 0 0-1.377 4.056-.207 7.545 0 0 3.906 7.036 2.189 12.016 0 0-.736 4.074.755 7.262 0 0 3.66 4.508 3.132 12.035 0 0-.453 5.017.415 7.563 0 0-1.547 10.658 5.718 9.583 0 0 4.132-1.453 2.396-6.847 0 0-4.076-12.374-3-17.071.019.037-.189-4.056-1.434-4.395m37.551-15.656s6.321-1.094 2.811-10.62c0 0-3.717-1.981-3.641-5.131 0 0-3.774-.094-4.51 3.66 0 0-3.473 11.864 5.34 12.091m-7.001-20.315s7.454 3.829 5.416-8.508c0 0-1.755-4.772.679-7.526 0 0 1.057-4.225-1.302-4.282 0 0-4.982-7.677-.547-14.637 0 0 1.943-1.83-.302-6.149 0 0-1.736-5.716-1.076-12.77 0 0 1.038-3.754-.736-7.564 0 0-2.755-8.413.472-11.469 0 0-3.585-7.017-.302-11.959 0 0 2.661-5.583.925-10.657 0 0-4.208-7.036-.208-15.732 0 0 1.982-3.716.227-8.167 0 0-5.454-7.696.396-14.449 0 0 4.604-7.432.943-11.299 0 0-5.944-13.053-.113-19.033 0 0 3-6.054-.415-8.035 0 0-4.227-12.374 1.774-18.825 0 0 2.283-3.244 2.377-6.545 0 0-1.622-9.96 1.321-13.638 0 0 3.001-6.527.283-10.375 0 0-2.132-8.544-1.434-16.542 0 0 .699-7.998-4.566-5.32 0 0-2.378.415-1.623 7.508 0 0 .377 8.016.491 16.524.094 7.469 0 15.316-.982 18.372 0 0-.207 7.545-4.094 11.676 0 0-3.51 7.451-.812 12.242 0 0 3.585 6.696-.358 13.204 0 0-2.963 4.64-1.246 10.808 0 0 5.397 10.054-.075 20.278 0 0-2.51 5.583.188 10.374 0 0 3.605 6.225.567 14.166 0 0-1.114 6.111-.246 8.96 0 0 3.189 4.338.095 13.675 0 0-3.001 6.055-.774 11.299 0 0 4.132 4.357-.302 10.846 0 0-1.038 3.754.793 5.678 0 0 2.207 5.564.226 9.28 0 0-.793 6.263.415 8.187 0 0 2.963 6.375.321 11.336 0 0-1.529 10.016.906 13.242 0 0 2.358 5.734 1.019 8.827-.019.038-.189 6.32 1.679 6.999m82.933-428.128s-.434 10.205 19.474 18.297c0 0 4.981 2.018 16.284 2.962 0 0-23.398-12.903-28.285-18.694l-4.605-3.904s-1.792-3.358-4.189-2c-.019 0-.509.925 1.321 3.34Zm-29.682 32.689s40.193 14.298 53.401 14.657c0 0 2.812 1.018 6.586 1.131 0 0 4-8.375-8.265-8.714 0 0-40.4-6.753-52.477-13.695 0 0-19.549-9.96-7.605 1.679 0 0 2.755 2.905 8.36 4.942m5.887 9.111c-3.189-1.094-7.095-2.509-8.869-3.546 0 0 1.076 4.131 8.737 8.733 4.208 2.528 11.322 5.904 19.153 7.13 0 0 25.795 5.885 36.174 6.168 0 0 7.038 1.604 7.132-1.697 0 0 2.057-6.074-6.472-4.886 0 0-13.058-1.942-24.908-3.98-8.303-1.414-11.718-2.678-17.342-4.244-.019 0-7.604-1.603-13.605-3.678m15.549 17.882c-4.227-.962-9.322-2.716-12.662-3.169 0 0 4.963 8.149 14.341 10.299 4.85 1.641 12.209 3.094 20.663 3.867 0 0 14.077 2.735 25.889 2.584 0 0 2.85-.396 4.718.132 0 0 1.528-4.206-5.473-6.753 0 0-11.265-2.188-20.7-2.452 0 0-8.001-.698-15.039-2.301 0 0-5.246-.717-11.737-2.207m54.27 51.967s4.566 5.791 16.85 5.168c0 0 4.227.585 7.548.208 0 0 .132-4.716-6.944-4.905 0 0-11.793-.32-17.454-.471m-19.002-12.318s3.623 5.753 12.114 5.999c0 0 12.265.339 17.927.49 0 0 5.151 1.547 3.849-2.716 1.189-1.453-1.321-3.81-5.586-2.98-.018-.019-24.568.245-28.304-.793m-36.042-28.35s4.51 7.677 20.455 11.412c0 0 15.492 3.244 31.079 2.263 0 0 4.264-.358 7.548.208 0 0 .17-6.131-3.114-7.168-1.849-.585-6.982-.528-13.661-.849-5.095-.245-13.776-.905-16.002-1.377 0 0-19.757-2.414-26.305-4.489m19.851 16.108s2.623 7.621 16.776 7.998c0 0 4.717.132 14.624.396 0 0 6.114 1.113 12.265.34 2.34-.302 1.132-7.036-1.226-6.64-3.85.66-35.853-1.433-42.439-2.094m76.555-44.063c.057-1.962-1.736-3.112-3.698-3.169l-7.605-.754c-1.962-.057-4.51 1.226-4.566 3.169-.057 1.961 1.264 3.263 3.208 3.319l8.246.302c2.359.302 3.698.019 4.415-2.867m1.736 11.374c.057-1.961-1.585-2.791-3.547-2.848l-7.869-.207c-1.962-.057-4.095.377-4.151 2.32 0 0 .245 2.282 4.019 2.395l8.152.849c1.981.038 3.34-.566 3.396-2.509m1.397 12.299c.056-1.962-1.736-3.113-3.699-3.169l-6.283-.17c-1.963-.056-3.001.396-3.057 2.358s1.585 2.943 3.528 2.999l6.926.189c1.962.056 2.528-.245 2.585-2.207m2.207 11.223c.057-1.962-1.094-3.263-3.056-3.301l-6.586-.811c-3.208-.396-2.83 2.679-2.83 2.679a2.75 2.75 0 0 0 2.754 2.904l5.473 1.019c1.962.038 4.189-.528 4.245-2.49m-.886 9.337-4.095-.113c-1.887.113-2.359-.151-2.415 1.981v-.227c-.057 1.962 1.264 2.943 3.226 2.999l3.453.095c1.963.056 2.529-.491 2.586-2.452.018 0-.793-2.226-2.755-2.283m3.189 9.828-2.812-.396c-1.962-.057-3.623.226-3.68 2.188-.056 1.961.944 3.093 2.906 3.15l3.774.094c1.246.34 2.529-.49 2.586-2.452 0 .019-.812-2.528-2.774-2.584m12.944 27.332c.038-1.17.057-2.113-1.113-2.151l-4.019.208c-1.17-.038-2.529.566-2.567 1.735-.037 1.17 1.604 2.019 2.774 2.037l2.831-.245c1.189.038 2.076-.415 2.094-1.584m-3.094-7.64a2.13 2.13 0 0 0-2.057-2.188l-3.227.227c-1.17-.038-2.698.566-2.717 1.735-.038 1.169 1.132 1.999 2.302 2.037l3.529.245a2.11 2.11 0 0 0 2.17-2.056m-4.001-8.601a2.126 2.126 0 0 0-2.056-2.188l-4.718-.132a2.126 2.126 0 0 0-2.189 2.056 2.127 2.127 0 0 0 2.057 2.188l4.717.132a2.126 2.126 0 0 0 2.189-2.056m322.582 11.957s17.208 8.506 41.605 3.131c0 0 33.756-7.978 49.152-32.439 0 0 5.68.792-11.679 22.481 0 0-5.038 5.79-11.057 9.731 0 0-7.868 5.866-4.982 7.676 0 0 17.02 1.434 29.945-9.75 0 0 8.358-5.413 12.396-12.598 0 0-8.642-5.904-6.509-13.975 1.056-3.961 2.792-8.204 9.641-10.166 0 0 12.68-2.225 14.888 9.977 0 0 3.037 7.94-5.736 15.239 0 0-15.623 15.974-28.246 20.085 0 0-1.868 1-5.152 1.547 0 0-5.585 2.979-1.301 4.281 0 0 5.245 1.754 11.773-1.264 0 0 4.623-2.263 8.831-4.941 3.849-2.452 7.113-5.356 10.717-4.998 0 0 7.567.736 10.34-1.697 0 0 4.604-4.376 12.623-4.112 0 0 4.585-.113 9.302-4.96 3.453-3.545 7.095-10.599 8.51-17.2 0 0 2.019-12.786-10.359-17.181 0 0 6.019-4.394 13.831 5.3 0 0 9.774 12.937-.208 27.365 0 0-1.321 3.338-3.641 4.809 0 0-4.585 5.319.66 7.054 0 0 .509 1.395 3.811 1.32 0 0 4.265.358 6.586-1.113 0 0 5.981-5.827 12.226-1.263 0 0 3.868 3.206 8.076 1.678 0 0 4.713-2.207 11.113-7.846 4.1-3.602 9.06-9.26 13.3-14.503 8.08-9.976 14.27-24.196 14.32-29.628 0 0 5.57 14.013-9.37 37.512 0 0-8.14 13.428-15.1 18.331 0 0 2.38.887 2.44 2.773 0 0 1.49.829 3.35 1.791 2.29 1.188 5.23 2.829 8.19 6.394 0 0 .51 1.584 2.91 2.753s4.75 1.283 10.87.189c0 0 29.53-7.393 39.94-23.707 0 0 .79 11.769-20.06 26.479 0 0-6.47 5.356-14.41 7.921 0 0-1.83 1.943-3.72 1.98 0 0 1.66 2.848 2.51 5.602.83 2.753.85 5.393 2.53 6.544 0 0 2.96 5.111 28.55 8.675 0 0-4.08 6.714-24.91 3.961 0 0-.34 5.205-6 4.884 0 0-2.34 1-4.96-2.093-1.02-1.188-1.64-3.168-1.4-6.243 0 0 2.08-10.429-2.3-15.502 0 0-2.81.547-4.47-8.374 0 0-1.02-2.81-3.42-4.149 0 0-3.79-.848-7.22-5.941 0 0-3.36-2.263-4.85-5.054 0 0-2.93-3.696-5.66.151 0 0-2.78 1.961 2.04 5.601 0 0 1.5 3.263 4.37 5.074 0 0 7.13 2.168 8.25 8.731 0 0 1.47 1.849 2.47 4.187 0 0 6.77 6.431 3.6 11.693 0 0-3.68 3.395-6.24-4.074 0 0-1.45-1.376-2.91-2.753 0 0-1.98-.773-4.3-1.773-2.87-1.245-6.19-2.32-6.36-8.317 0 0-.56-3.281-3.94-6.035 0 0-6.191-2.188-7.228-5.941 0 0-1.906-.415-2.887-1.81 0 0-4.699.603-7.114-1.226 0 0-1.736-.264-3.604.717 0 0-5.868 4.564-10.981.924 0 0-3.189-1.49-6.283.169 0 0-3.359 3.867-8.472.849 0 0-2.868-1.49-5.661.151 0 0-.264 1.584-2.471 1.961 0 0-1.151 3.81 1.056 4.055 0 0 5.321 0 10.378-.283 6.189-.339 12.434-.829 13.868 1.207 0 0 3.17.868 4.397-.433 0 0 9.037-3.075 14.151-.057 0 0 5.075 1.433 5.831 6.129 0 0-1.756 4.753-6.246 1.735 0 0-2.208-.245-3.491-1.471 0 0-3.491-1.169-5.34.453 0 0-.905 1.603-3.736 1.678 0 0-5.906 2.679-2.339 6.979 0 0 .358 1.244 5.151 4.582 0 0 1.603 1.226 4.755 1.453 0 0 6.038 2.357 4.641-2.641 0 0-.981-1.226-2.566-2.131 0 0-2.396-1.037-2.604-3.074-.339-1.056 1.302-1.528 5.076-1.15 0 0 13.059 3.187 24.109 10.919 0 0 13.67 8.129 30.59 23.235 0 0 8.43 6.62 12.96 8.619 0 0 4.36 3.885 11.44 4.168 0 0 10.87.415 9.47-7.336 0 0-.53-1.867-1.98-3.244 0 0 .17-2.603 3.75-.811 0 0 6.59 8.317-3.15 14.239 0 0-11.15 6.657-26.43-.472 0 0-9.74-2.565-24.53-17.275 0 0-11.57-8.883-14-11.9 0 0-4.81-3.414-7.7-5.696 0 0-5.06-3.885-8.02-.264 0 0-2.773 1.961.15 5.413 0 0 7.74 7.11 8.02 8.977 0 0 1 1.867 1.98 3.715 0 0 2.7 3.942 6.51 5.017 0 0 6.44 2.188 4.74 9.769 0 0-.78 6.62 1.2 10.335 0 0 .87 8.789-2.18 12.315 0 0-3.31 5.753.9 10.354 0 0 3.25 3.697 4.04-1.678 0 0-.15-5.979 1.96-9.166 0 0 2.38-5.092 1.02-9.147 0 0-3.75-11.221-.13-16.973 0 0 .47-5.677 4.36-1.377 0 0 5.71 2.357 2.24 13.145 0 0-1.81 3.187-.41 8.185l.88 9.411s-1.15 3.81-2.3 8.241c0 0 .23 2.679.76 4.376.92 2.999 2.17 6.167.24 9.43 0 0-1.19 2.546.15 5.658 0 0 3.32 6.827.95 11.919 0 0-.27 1.961.09 3.772.66 3.338 1.45 7.185-1.02 9.467 0 0-2.24 10.128-.28 13.221 0 0 .09 3.772 4.49 3.658 0 0 3.17.547 2.96-6.996 0 0 .3-11.957 1.51-14.503 0 0 .44-4.621.4-8.506-.02-3.225-.49-5.564-.83-7.846 0 0-3.68-8.392-.06-14.144 0 0-3.45-11.863-.11-16.031 0 0-.06-1.886-.15-5.658-.1-3.281-.63-9.335.28-13.22.77-3.357 1.49-7.016 4.57-5.47 0 0 6.03 2.66 6.47 18.69 0 0-.55 2.848.13 5.036 0 0 4.62 8.053-.57 14.163 0 0-1.22.981-3.68 3.866 0 0-3.24 8.261.17 17.917 0 0-.71 8.506 12.82 20.406 0 0-3.8-.849-7.1-.754 0 0-6.19-2.188-7.89 5.394 0 0-1.75 4.771-1.67 8.053 0 0 3.09 9.825-2 13.258 0 0 1.3.603 2.41 2.301 1.53 2.319.13 4.715 6.3 6.431 0 0 12.8 2.018 12.49-9.298 0 0-1.41-6.243-9.6-5.884 0 0 5-7.205 12.3 1.565 0 0 5.1 13.862-10.89 16.804 0 0-8.45 1.471-13.66-4.979 0 0-3.83-1.791-4.66 2.018 0 0-1.34 9.147.97 12.542 0 0 1.07 2.301 1.66 3.093 1.75 2.376 2.94 4.319 3.47 12.485 0 0-.32 11.334 2.9 14.691 0 0 1.08 4.696 8.93 4.489 0 0 9.13.396 7.94-8.694 0 0-1.34-2.792-4.45-1.773 0 0-2.66.547-2.96-2.282-.4-1.151.13-4.017 4.39-3.414 0 0 5.68.321 6.76 5.715.47 2.376 1.34 6.336-2.81 9.75 0 0-11.49 11.391-21.08-2.508 0 0-3.75-5.47-3.38-14.296 0 0 1.02-9.147-4.17-14.673 0 0-5.11-2.696-5.62-10.542 0 0 2.26-9.486-.98-13.183 0 0-5.19-6.148-2.25-13.767 0 0 .61-1.283-.11-4.395 0 0-6.51-7.996.81-17.011 0 0 2.38-5.092.38-9.449 0 0-3.28-4.941-1.53-10.014 0 0 .76-6.94-3.98-7.751 0 0-3.17-.868-4.09.113-1.08 1.131-2.17 1.32.18 6.921 0 0 4.68 10.562-.51 16.05 0 0-.84 1.81-1.49 3.187-1.22 2.64-2.32 6.186.27 10.052 0 0 3 6.205-1.28 11.033 0 0-3.02 4.79.86 9.09 0 0 7.08 5.47 2.98 17.521 0 0 .08 2.508 2.7 6.846 0 0 6.49 7.374 4.81 14.974 0 0 .06 1.886 2 4.357 0 0 8.59 9.675 6.51 20.104 0 0 2.61 2.905 5.34 5.526 6.36 6.073 15.29 12.636 15.27 23.971 0 0-.44 7.562-8.55 9.656 0 0-3.41 1.659-5.04-.189 0 0-1.98-3.414 2.42-3.527 0 0 9.64-4.036 2.13-14.521 0 0-1.55-2.528-4.25-5.545-3.18-3.584-7.73-7.865-10-9.166 0 0-5.73-2.678-4.62 3.885 0 0 1.45 19.143.3 23.254 0 0 10.17 16.087-1.24 24.253 0 0-1.81 3.188-.1 8.185 0 0 4.14 3.81 5.27 8.676.79 3.413-.36 7.845-4.44 10.806 0 0-.58 1.585-4.32 3.263 0 0-2.77 1.961-.47 6.299 0 0 7.15 8.939-2.41 15.785 0 0-1.51 1.924-3.38 3.226 0 0-.42 7.864-6 11.164 0 0 5.43 14.956.62 23.254 0 0-5.43 8.317-.3 12.58 0 0 .75 4.375 6.38 2.979 0 0 5-1.395 3.58-7.015 0 0-3.51-13.749 4.19-8.28 0 0 3.68 2.565.64 12.561 0 0-2.56 9.977-15.88 5.601 0 0-7.93-2.471-5.12-14.805 0 0 .42-1.735 1.13-4.432.32-1.207 1.44-2.414 1.68-3.828.7-3.904 1.49-6.941-.49-10.675 0 0-2.98-5.884-8.26-3.244 0 0-4.7 1.075-2.002 7.28 0 0 .755 5.017 4.922 7.733 0 0-12.941 10.41-19.621-4.508 0 0 8.718-3.376 11.095-8.468 0 0 3.321-5.431-2.377-6.544 0 0-5.208-.962-10.699 5.469 0 0-7.434 4.451-8.075 15.786 0 0 .169 4.017-.736 7.562-3 11.712-4.566 23.707-21.02 26.027 0 0-10.377.283-10.698-11.976 0 0-.245-1.924.604-3.791 1.434-3.168 5.037-6.903 11.17-5.715 0 0 3.566 1.245 4.019 5.941 0 0-.132 3.848-2.755 2.773-.377-.151-1.264-.246-1.944-2.226-.566-.66-1.603-1.169-3.471-.66 0 0-5.906 2.358-2.623 7.619 0 0 1.623 2.622 4.623 2.942 1.245.132 5.755-1.64 7.49-3.074 2.887-2.376 6.982-7.317 8.491-16.747 0 0 3.151-23.669 20.416-30.741 0 0-.076-2.829 4.151-3.413 0 0-1.189-9.393 3.34-16.597 0 0 2.755-2.904.792-5.677 0 0-4.906-6.94.642-11.334 0 0 2.264-3.357.736-8.034 0 0-3.963-6.978 2.056-11.373 0 0 .34-3.017 1.284-5.224.94-2.206 2.49-3.602 1.28-5.224 0 0-8.715-8.26-.96-18.369 0 0 1.79-3.357-.13-5.187 0 0-4.889-5.997.17-11.315 0 0 1.36-1.924-.587-4.225 0 0-4.528-4.903.977-10.712 0 0 5.17-6.431 1.91-11.372 0 0-8.359-7.016-2.3-15.654 0 0 2.62-7.619-.04-12.9 0 0-4.887-6.167-3.755-10.901 0 0-3.509-1.791-3.264-4.318 0 0-4.472-2.716-4.34 2.621 0 0 2.717 7.789-.622 12.278 0 0-.604.961.094 3.451 0 0 .811 6.582-.075 8.657 6.377 9.26-.585 13.22-.585 13.22-1.793 3.357.245 9.43.245 9.43 4.566 12.145-1.962 14.673-1.962 14.673-2.717 4.318.245 9.429.245 9.429 4.906 7.412.17 12.58.17 12.58-3.019 4.941-1.114 5.695-1.114 5.695 2.604 9.053-.32 11.335-.32 11.335-.529 3.791.169 6.28.169 6.28 3.982 8.072-2.754 14.541-2.754 14.541.207 7.544-5.434 8.939-5.434 8.939-3.076 2.603-6.397 7.563-6.397 7.563-3.585 7.167-1.094 12.296-1.094 12.296a69 69 0 0 1 .66 7.054c.283 10.844-5.736 15.238-5.736 15.238-5.962 6.771-11.717 2.678-11.717 2.678-6.774-6.431-.321-12.258-.321-12.258 1.057-.906 2.019-.906 2.359-.302 1.113 1.075-.642 2.848-.642 2.848-2.302 1.942-1.566 3.112-1.566 3.112.094 3.771 2.944 4.168 2.944 4.168 7.641 3.092 10.207-6.564 10.207-6.564 2.17-1.32 1.227-12.918 1.227-12.918-3.057-8.714.226-15.107.226-15.107 3.057-3.225-.736-4.375-.736-4.375-2.547-.868-4.472-2.546-6.113-2.037a7 7 0 0 0-2.717 1.641c-6.151 5.186-14.868 8.562-14.868 8.562-10.623 2.791-13.888-.226-17.378-2.999-7.717-6.091-5.415-14.314-5.415-14.314 1.415-5.488 2.735-7.412 4.773-9.562 2.076-2.169 4.264-4.187 8.057-4.922 2.849-.547 6.661 2.338 6.661 2.338 8.981 6.677.339 12.58.339 12.58-5.019.132-4.019-9.317-4.019-9.317-5.773-4.243-9.925 5.299-9.925 5.299-4.736 11.448 4.831 16.22 4.831 16.22 15.302 7.77 25-6.318 25-6.318 3.718-1.981 2.17-13.259 2.17-13.259-4.679-10.561 3.944-17.086 3.944-17.086 2.415-3.829-.246-9.43-.246-9.43-7.056-4.847-.377-14.447-.377-14.447 3.623-5.752.283-12.598.283-12.598-4.736-6.468-3.962-6.808-.377-14.446 1.679-3.602 4.83-7.676 4.83-7.676 3.057-3.225 1.547-12.617 1.547-12.617-4.622-8.053.887-13.862.887-13.862 3.604-6.374-.905-10.655-.905-10.655-1.906-.585-3.869-3.678-3.869-3.678-7.679-4.828-3.698-12.617-.452-16.974 1.075-1.452 2.377-5.092 2.377-5.092 5.51-5.808-.906-10.674-.906-10.674-7.755-7.978-1.037-15.691-1.037-15.691 4.943-3.282 2.188-12.014 2.188-12.014-4.585-6.789-.358-13.202-.358-13.202 1.811-2.564 1.113-5.695 1.113-5.695 2.34-6.978-.453-16.974-.453-16.974-3.17-1.169-7.094-6.733-7.094-6.733-2.755-9.354-1.925-25.102-1.925-25.102-1.377-4.356-2.132-9.373-2.132-9.373-3.34-7.449-13.302-3.414-13.302-3.414-4.359 2-9.378 2.132-9.378 2.132-8.774 1.49-8.302-4.809-8.302-4.809-3.321-6.828 3.66-4.508 3.66-4.508 4.416.509 9.416-.886 9.416-.886 10.038-.887 6.623-11.505 6.623-11.505-4.397.755-5.68-.471-5.68-.471-2.641 6.978-9.547 7.487-9.547 7.487-7.302.66-13.038-3.998-16.227-6.808-1.057-.943-2.566-2.131-2.566-2.131-2.151-.736-2.566-1.509-4.095-.623-2.056.679 1.057 4.489 1.057 4.489a264 264 0 0 0 2.302 3.715c12.736 17.577 11.755 40.246 11.755 40.246-1.491-8.769-10.397-24.253-10.397-24.253-10.509-16.71-22.396-19.84-22.396-19.84-15.265-6.205-26.907-4.413-32.171-2.923-1.736.49-3.264 1.508-3.264 1.508-3.284.566.566 3.753.566 3.753 2.396 1.358 4.339 3.188 4.339 3.188 4.793 2.697 1.585 6.091 1.585 6.091l-2.773 2.433c-3.699 2.923-5.68-.32-5.68-.32-1.905-.415-4.302-2.245-4.302-2.245-6.698-3.602-13.849-6.242-13.849-6.242-5.208-.811-2.264 3.828-2.264 3.828 1.471 2.32 2.453 3.244 2.453 3.244 15.547 17.03 13.49 27.95 13.49 27.95-2.528-6.073-5.283-9.769-5.283-9.769-6.66-13.504-16.793-16.54-16.793-16.54-5.566-2.207-8.151.849-8.151.849-18.548 12.447-41.907 9.279-41.907 9.279-9.453-.378-1.736 5.714-1.736 5.714 5.717 1.735 13.095 7.506 13.095 7.506 9.963 7.6 5.151 16.521 5.151 16.521-2.962 6.997-9.981 3.414-9.981 3.414-5.17-4.885 2.924-8.261 2.924-8.261 4.906-5.167-.264-10.052-.264-10.052-3.094-5.111-8.226-6.903-13.415-7.827-3.623-.641-8.208-1.037-8.208-1.037s-8.831-.472-14.491-.868c-9.604-.679-18.925-2.018-18.925-2.018-12.472-1.999-18.057-8.43-21.114-13.277a126 126 0 0 1-3.302-5.563c-1.962-3.093-5.774-4.244-5.774-4.244-17.981-13.993-3.66-42.66-3.66-42.66s.83-4.111 2.358-5.714c0 0 1.114-5.696-.509-7.224l-9.434.246s13.132-10.015 16.245-16.163c1.17-2.301.076-4.036-2.018-4.658l-4.453-1.773s4.736-2.037 8.038-4.923c2.113-1.848 3.151-4.696 3.622-5.431 0 0 1.151-3.81-5.774-4.244 0 0 6.774-5.846 8.623-7.147 0 0 4.906-4.526-.151-5.658 0 0-4.735-.811-.415-3.772 0 0 4.906-4.847 5.793-7.072 0 0 4.51-7.978-.038-12.881 0 0-2.226-.887-3.528-2.735 0 0-2.906-2.754-5.038.132 0 0-1 3.791.358 7.695 0 0 .359 1.716-.396 2.527-.792.83-2.17 1.471-3.773-.057 0 0-3.114-4.47.396-8.807 0 0 .83-4.432-1.076-4.696 0 0-1.773-1.358-4.094.113 0 0-2.812.867-2.717 4.168 0 0-.283 7.242-1.661 8.694 0 0-2.283 2.886-.339 5.205l7.283 7.356s-3.321-.849-8.038-.736c0 0-2.849-.396-4.245.113 0 0-7.906 4.451-7.171-3.111 0 0 2.227-5.244-.188-7.544 0 0-1.377-4.678-3.755-5.092 0 0 4.038-1.528 11.321 5.827 0 0 5.868-3.923 5.283-8.166 0 0 .963-5.205-.037-7.072l-1.265-6.092 4.397-.113s1.924 1.207 6.264-.792c0 0 10.113-3.885 8.113-8.544 0 0-4.981-3.79-3.585-10.75 1.906-9.58 11.472-6.28 14.095-2.583 0 0 13.416-4.13 13.076 6.883 0 0 .132 4.715-6.076 8.016 0 0-.226 3.47 1.717 5.62 0 0 1.567 2.753 2.944 4.319 1.377 1.584 2.566 1.98 3.226 3.055l2.831.245s9.151-4.639 10.566-10.655c0 0 1.51 3.262 1.113 6.581-.415 3.621 3.076 6.186-2.396 10.128 0 0-4.811 2.791-5.208 5.639 0 0-1.113-6.11-3.038-7.94l-1.943-1.829s-2.849-.868-3.717 2.452c0 0-.302 6.619-2.604 8.562 0 0-1.811 2.885-.264 7.562 0 0 7.283 7.827.755 10.354 0 0-2.34.528.113 4.244 0 0 4.887 6.469 6.811 7.845 0 0-3.302.095-5.17.604 0 0-2.792 1.49-1.283 5.224 0 0 3.944 6.035-1.679 7.581 0 0-2.811 1.019-.849 3.32 0 0 2.51 5.601 6.83 8.317 0 0 3.868 3.677-1.83 2.414 0 0-7.962 2.093-2.189 6.186 0 0 9.982 2.565 17.51 1.886 0 0 10.416 1.603 17.944.471 0 0 15.057-1.81 16.529-16.955 0 0 3.189-21.782-2.981-41.434 0 0-3-8.506-4.642-14.974-2.283-8.978.962-17.012 10.774-20.576 0 0 6.057-2.999 17.453-.472 0 0 28.907 4.885 60.38-.66 0 0 47.001-6.902 64.133-19.161 0 0 5.604-2.037 8.85-4.489 0 0 9.302-4.96 4.302 1.773 0 0-6.68 15.276-49.851 24.442 0 0-19.698 4.772-26.283 5.413 0 0-2.34.528-2.887-2.282 0 0-.604-4.696-3.793-.377 0 0-7.811 7.751-17.265 7.053 0 0-4.717.132-9.434.245 0 0-5.208-.811-5.113 2.961 0 0-2.264 3.829 4.34 3.659 0 0 6.641 1.245 13.189-.83 0 0 10.453-3.112 4.019 3.187 0 0-3.416 1.981-10.944 2.641 0 0-3.774.094-7.057.66 0 0-5.208-.34-5.132 2.489 0 0-.849 3.32 2.924 3.225l11.322-.301s6.736-1.113 3.528 2.734c0 0-1.793 3.829-10.453 3.112 0 0-3.283.566-7.076.189 0 0-7.076.188-3.17 4.809 0 0 3.34 1.32 7.585 1.207 0 0 10.321-2.169 8.076 1.678 0 0 .094 3.301-8.868 3.546 0 0-3.302.094-6.604.17 0 0-4.736-.34-4.642 2.961 0 0-1.83 2.414 2.415 2.3 0 0 5.68.321 9.454.227 0 0 7.547.264.094 3.3 0 0-6.113.641-10.849.283 0 0-4.736-.339-5.114 2.961 0 0-1.339 2.867 2.906 3.225 0 0 3.321.377 6.151.302 0 0 5.17-.924 4.944 2.546 0 0-2.755 2.904-6.699 2.225 0 0-3.773.094-6.132.17 0 0-5.642.622-5.132 2.018 0 0-.868 2.848 2.453 3.244 0 0 2.849.867 5.207.811 0 0 6.133-.17 1.982 3.715 0 0-1.378 1.452-5.642 1.094 0 0-3.283.396-6.604.17 0 0-5.642.622-2.264 3.357 0 0-.302.792 4.773 2.225 0 0 11.001-.283 2.963 4.64 0 0-.906 1.603-5.302 2.017.151.095-3.302.51-.585 2.49m237.516 219.129c3.06 8.411 3.72 15.936 3.72 15.936 13.47-8.373 12.71-18.746 12.71-18.746-9.86 1.678-14.68-1.961-14.68-1.961-6.64-1.698-1.75 4.771-1.75 4.771m8.76-79.455c-3.14 6.695 2.32 16.445 2.32 16.445 9.32 13.428 17.17 7.092 17.17 7.092 4.22-.585 6.56-5.47 7.34-8.204 1.77-6.394-3.15-11.712-3.15-11.712-11.02-6.318-15.51 2.301-15.51 2.301-6.04 3.451-8.17-5.922-8.17-5.922m-94.159 79.851c-1.943-2.301-4.735-.811-4.735-.811-1.359 1.924-3.68 3.866-3.68 3.866l-1.906-.886c-1.509-3.734-3.886-4.149-3.886-4.149-9.548-3.979-14.057 3.678-14.057 3.678-6.208 14.785 7.075 17.727 7.075 17.727 14.718 3.376 20.416-12.805 20.416-12.805 3.208-3.866.773-6.62.773-6.62m-9.528-92.676s-.472 6.507-3.189 14.183c-.566 1.565-2.981 6.997-3.415 8.015-4.302 9.713-5.264 14.088-13.529 24.555 0 0 16.472-12.353 24.454-29.855.622-1.357 2.264-5.186 2.83-7.26.66-2.433 1.302-6.318.981-11.731 0 0-.792-6.261-6.415-4.866-.019 0-2.83.698-1.717 6.959m-3.83-48.94-8.793.867c3.396 9.336-4.302 27.78-4.302 27.78 11.793-7.242 13.095-28.647 13.095-28.647m-53.455 24.046s18.189 21.518 19.605 27.78c0 0-2.51-23.197-14.114-34.211 0 0-1.377-4.357-5.095-2.377l-3.113 1.339s-4.34 2.641 2.717 7.469m-.226-32.062c-2.264 9.807-7.472 8.695-7.472 8.695-4.264-.83-3.434-5.092-3.434-5.092-1.566-5.621-4.415-6.488-4.415-6.488-15.718-5.714-17.793 8.788-17.661 10.373 1.321 15.54 17.491 13.05 17.491 13.05 19.34-5.865 20.246-19.406 20.246-19.406.528-4.093-1.283-5.733-2.038-5.601-2.208.377-2.717 4.469-2.717 4.469M774.437 143.409c-7.397-12.07-15.642-2.414-15.642-2.414-2.981 2.998-2.717 5.94-1.661 8.543 1.774 4.319 6.623 7.544 8.699 7.789 2.113.245 6.792 4.13 7.811 5.054 7.151 7.77 7.453 19.067 7.453 19.067 3.208-21.782-6.66-38.039-6.66-38.039M945.064 562.43c2.189 11.259 12.963 8.147 12.963 8.147-.566-3.753-.83-13.654-.83-13.654-4.17 3.414-12.133 5.507-12.133 5.507m-224.44-461.135s-3.642-6.506-8.529-1.339c0 0-2.754 2.905 1.17 8.468 0 0 2.283 3.395 5.17 4.885 0 0 5.982.471 9.076-1.811 0 0 7.151-3.338 2.906-8.883 0 0-.359-1.565-5.378-1.112 0 0-1.547.679-2.811 1.018zm-5.774 19.331c-.113 1.49 1.34 3.414 2.302 4.017 0 0 2.302 3.716 6 .792 0 0 3.378-3.224-.471-5.639 0 0-2.321-4.337-6.02-1.735 0 0-1.698 1.075-1.811 2.565m19.133 116.779c7.66 3.885 12.604 12.39 12.604 12.39 2.019 5.13 4.83 6.677 5.83 6.45 2.34-.528.755-7.091.755-7.091-1.113-6.582-14.604-16.596-14.604-16.596-5.68-.792-6.378-8.789-6.378-8.789-1.717-11.278-10.34-16.238-10.34-16.238-11.472-5.356-2.66 6.676-2.66 6.676 5.793 5.036 7.925 14.409 7.925 14.409-.359 1.584-.114 4.432 1.396 5.469 2.283 1.528 5.472 3.32 5.472 3.32m9.264-15.277c.359.547.906 1.17 1.717 1.773 0 0 7.378 11.599 6.114 16.823 0 0 8.679 6.846 10.283 13.881 0 0 1.113 6.582 4.434 6.959 0 0 5.698 1.263 2.604-8.563 0 0-5.51-11.636-8.831-12.975 0 0-3.66-13.107-9.415-16.728 0 0-2.83-3.999-5.943-3.716-.567.057-1.699 1.453-.963 2.546m34.492 28.271c5.792 5.035 11.151 11.485 11.151 11.485 2.359-.056 5.529-4.865 5.529-4.865-1-1.867-3.755-5.093-3.755-5.093-6.944-6.883-14.114-10.316-14.114-10.316-10.83-4.752-6.189 3.942-6.189 3.942 1.321 1.547 7.378 4.847 7.378 4.847m7.264-11.052c3.944 6.035 8.132 4.036 8.132 4.036 3.246-1.98-2.113-8.43-2.113-8.43-5.34-5.997-12.566-10.976-12.566-10.976-6.208-3.131-10.472-3.489-10.472-3.489-7.982 1.622 2.547 7.015 2.547 7.015 5.094 2.377 10.585 7.733 10.585 7.733 1.944 1.81 3.887 4.111 3.887 4.111m27.492-12.994c3.717-2.452-2.548-7.016-2.548-7.016-4.811-3.64-13.321-4.356-13.321-4.356-11.661-.642-8.642 6.525-8.642 6.525 4.208 4.281 8.831 1.018 8.831 1.018 4.245-.113 10.906 2.075 10.906 2.075 1.981 2.772 4.774 1.754 4.774 1.754m15.641 14.22c1.85-1.301.227-3.15.227-3.15-1.642-2.791-5.472-4.884-5.472-4.884s-2.264-2.15-8.906-3.847c0 0-3.509-1.792-5.321.773 0 0-3.075 2.904 2.321 4.658 0 0 5.378 1.433 7.623 2.622 0 0 3.17 1.169 4.792 2.697 2.604 4.017 4.736 1.131 4.736 1.131m3.019-22.726s-3.207-2.433-8.509-.716c0 0-4.623 3.432-.963 5.375 0 0 4.906 1.131 9.642 1.942 0 0 3.906-.735 3.812-4.507 0 0-2.076-1.207-3.982-2.094m4.699 5.224a2.51 2.51 0 0 0 2.585 2.452 2.513 2.513 0 0 0 2.453-2.584 2.513 2.513 0 0 0-2.585-2.451 2.51 2.51 0 0 0-2.453 2.583m52.964 16.352c6.566-1.585 7.887-5.394 7.887-5.394 4.169-2.942.377-3.791.377-3.791-3.83-2.263-6.585 1.113-6.585 1.113l-4.019 2.621c-4.963 2.641-5.378-.962-5.378-.962l.227-2.998c-.566-3.753-6-1.094-6-1.094l-5.095 3.432c-4.642 2.961-4.283-1.301-4.283-1.301-.057-1.886-.566-3.282-.566-3.282-2.925-3.225-6.095 1.585-6.095 1.585-2.094 4.149-9.585 5.921-9.585 5.921-3.717 1.981-6.793 3.263-3.623 5.753 1.925 1.527 5.378 1.112 5.378 1.112 5.038.491 26.378-1.961 26.378-1.961 2.642-.528 10.982-.754 10.982-.754m-6.963 4.432s-6.642-1.245-19.057-.755c0 0-10.68.283-14.435 1.641 0 0-7.037 1.603-4.094 5.3.906 1.15 5.585.339 7.396.282 7.038-.282 13.737-1.659 16.661-.924 0 0 8.491-.226 12.284.623 0 0 7.566.735 7.981-1.622 0 0 3.642-4.828-6.736-4.545m60.134-10.09c6.038-3.923 1.887-6.337 1.887-6.337-2.604-3.074-6.567 1.754-6.567 1.754-5.528 4.866-10.358 1.226-10.358 1.226-2.906-3.074-4.887-.34-4.887-.34-3.208 3.697-9.397 1.188-9.397 1.188-9-1.169-6.981 3.489-6.981 3.489.056 2.113 1.792 2.377 4.472 2.396 2.679.018 6.283-.17 6.283-.17 8-.679 19.17-.83 19.17-.83 2.491-.377 6.378-2.376 6.378-2.376m37.246-13.24c2.887 1.811 8.189.415 8.189.415 4.019-2.942 9.076-1.81 9.076-1.81 3.151.226 4.83-1.547 4.66-2.32-.72-3.131-5.754-3.621-5.754-3.621-5.718-2.357-10.359 1.226-10.359 1.226s-4.038 2.301-8.491.226c0 0-2.585-2.452-7.246-.434 0 0-3.113 1.019-2.717 4.168.038.717 1.265 1.717 2.265 2.15.603.264 3.056-.245 4-.32 2.811-.302 6.377.32 6.377.32m-19.661 35.89s-1.434-.905-3.849-2.735c0 0-5.302-4.111-7.585-1.207 0 0-1.793 3.357 2.491 5.13 0 0 3.358 2.263 5.754 3.621 0 0 3.887 4.149 6.623.773.019-.018 3.736-1.999-3.434-5.582m19.227 13.164s-4.641 2.961.755 10.354c0 0 1.943 2.301 4.793 2.697 0 0 4.849 5.054 3.641-4.809 0 0-1.019-2.81-2.49-4.659 0 .019-3.001-6.506-6.699-3.583m18.416 53.75c-.113-4.338-1.264-9.015-3.113-10.769 0 0-1.434-.905-3.944-6.035 0 0-2.34.528-3.415-4.149 0 0-5.755-3.15-4.189 2.47 0 0 2.981 5.583 2.642 10.298 0 0-.302 6.148 1.679 9.863 0 0 4.962 8.827-.113 13.673 0 0-2.265 3.357-.283 7.092 0 0 4.453 7.43.302 11.315 0 0-2.208 5.715-.717 8.506 0 0 3.453 5.564 1.698 10.807 0 0-.34 4.733 2.453 3.715 0 0 4.622-3.904 6.415-7.242 0 0 5.528-4.866 1.17-9.468 0 0-4.868-5.525-1.189-9.392 0 0 3.245-2.451 1.189-8.524 0 0-5.812-5.507-2.302-15.503.019 0 1.811-3.357 1.717-6.657m8.643-12.485c-.32 5.677 2.98 5.582 2.98 5.582 4.74.34 3.62-5.752 3.62-5.752-.09-3.3.1-14.145.1-14.145.22-9.429-2.61-8.901-2.61-8.901-6.24-4.074-4.09 5.771-4.09 5.771.04 1.395 0 17.445 0 17.445m-2.38 34.965c-1.3 4.281.62 5.809.62 5.809 1.97 2.772.65 6.431.65 6.431 1.6 6.714 5.58 3.15 5.58 3.15 3.26-1.509.42-8.034.42-8.034-2.04-5.602 1.07-12.768 1.07-12.768.89-2.377-.13-4.715-.13-4.715-1.49-2.791-1.57-5.62-1.57-5.62.49-5.036-2.03-5.602-2.03-5.602-5.7-1.414-2.59 9.034-2.59 9.034 2.49 4.64-2.02 12.315-2.02 12.315M818.136 243.345s-5.83 5.187-8.321 6.507c0 0-1.679.717-2.792 1.641-1.114.924-1.68 2.093-.208 4.092 0 0 .698 2.81 7.529-.509 0 0 2.17-1.264 4.641-3.263 1.566-1.282 3.453-3.206 4.283-4.205 0 0 2.453-2.584-.151-5.658.019 0-2.868-1.811-4.981 1.395M994.16 391.808s-1.226.98-2.774 2.282c0 0-1.528 1.301-1.773 4.451-.132 1.414.566 2.546 1.981 3.413 0 0 5.755 3.301 6.849-3.017 0 0 .83-4.413-.83-7.525 0-.019-2.566-1.509-3.453.396m9.85 15.465c-.91 1.603-.85 3.545-.4 5.507.46 1.98 1.29 3.979 1.29 3.979 5.37 6.922 1.62 13.711 1.62 13.711-1.6 4.922.36 7.468.36 7.468 1.96 2.471 2.49 5.036 2.49 5.036-1.21 7.902 3.92 5.563 3.92 5.563 3.42-1.339 1.61-10.41 1.61-10.41-2.59-2.754-.93-10.976-.93-10.976.27-1.886-.79-6.262-.79-6.262-4.21-4.281-2.26-14.088-2.26-14.088 2.69-5.092-.99-12.862-.99-12.862-2.9-2.753-2.09-7.487-2.09-7.487 2.09-4.149-.79-5.96-.79-5.96-4.47-2.395-5.38 4.772-5.38 4.772-.87 3.168.94 6.035.94 6.035 4.31 6.45 1.4 15.974 1.4 15.974m1.34 144.916c1.07 4.697-3 17.068-3 17.068-1.74 5.394 2.38 6.846 2.38 6.846 7.26 1.057 5.71-9.58 5.71-9.58.87-2.546.44-7.563.44-7.563-.51-7.544 3.13-12.032 3.13-12.032 1.49-3.188.75-7.242.75-7.242-1.69-4.979 2.21-12.014 2.21-12.014 1.17-3.489-.21-7.544-.21-7.544-1.05-4.055 1.67-8.845 1.67-8.845.58-1.282.81-5.054.81-5.054-.72-3.433-.68-6.563.03-10.373.16-.83.36-1.603.59-2.32.55-1.791.72-5.28.6-6.525-.49-5.262.17-11.618.17-11.618.53-3.79-.54-8.788-.54-8.788-1.1-5.639-2.4-7.487-2.4-7.487-6.64-1.396-3.57 7.958-3.57 7.958s2.76 8.581-.94 11.505c0 0-1.3 4.281-.26 8.034 0 0 2.47 4.187-.25 8.505 0 0 .43 16.031-2.36 17.521 0 0-1.79 3.828-1.22 7.11 0 0 2.05 6.544-1.17 8.996 0 0-2.12 3.037-.31 6.129 0 0 2.31 9.694-.75 12.919-1.3.302-1.51 4.394-1.51 4.394m-30.738-32.212c-.736-3.753-4.509-3.658-4.509-3.658.075 3.13-3.642 5.129-3.642 5.129-3.528 9.524 2.793 10.618 2.793 10.618 8.811-.226 5.358-12.089 5.358-12.089m3.359-15.163c-1.34-3.112 1.019-8.826 1.019-8.826 2.434-3.206.906-13.239.906-13.239-2.642-4.961.32-11.335.32-11.335 1.208-1.924.415-8.185.415-8.185-1.981-3.715.227-9.279.227-9.279 1.83-1.924.792-5.677.792-5.677-4.415-6.487-.283-10.844-.283-10.844 2.227-5.243-.773-11.297-.773-11.297-3.076-9.354.113-13.673.113-13.673.868-2.848-.245-8.958-.245-8.958-3.038-7.94.566-14.164.566-14.164 2.698-4.79.188-10.373.188-10.373-5.471-10.24-.075-20.274-.075-20.274 1.717-6.186-1.226-10.806-1.226-10.806-3.944-6.507-.359-13.202-.359-13.202 2.698-4.79-.793-12.24-.793-12.24-3.886-4.149-4.075-11.693-4.075-11.693-.962-3.055-1.057-10.9-.962-18.369.113-8.505.509-16.521.509-16.521.755-7.091-1.623-7.506-1.623-7.506-5.264-2.697-4.585 5.319-4.585 5.319.68 7.996-1.453 16.539-1.453 16.539-2.735 3.848.283 10.373.283 10.373 2.925 3.697 1.302 13.636 1.302 13.636.095 3.3 2.378 6.544 2.378 6.544 6 6.45 1.755 18.822 1.755 18.822-3.416 1.98-.415 8.034-.415 8.034 5.811 5.978-.133 19.029-.133 19.029-3.679 3.866.925 11.297.925 11.297 5.849 6.771.377 14.465.377 14.465-1.773 4.451.208 8.167.208 8.167 4 8.694-.208 15.728-.208 15.728-1.754 5.074.906 10.675.906 10.675 3.283 4.941-.321 11.957-.321 11.957 3.227 3.055.472 11.466.472 11.466-1.793 3.829-.736 7.563-.736 7.563.66 7.054-1.075 12.768-1.075 12.768-2.246 4.3-.302 6.148-.302 6.148 4.434 6.959-.548 14.635-.548 14.635-2.358.057-1.301 4.281-1.301 4.281 2.434 2.773.679 7.525.679 7.525-2.038 12.316 5.415 8.506 5.415 8.506 1.906-.754 1.736-7.016 1.736-7.016m-83.002-424.49c-2.397-1.358-4.189 1.999-4.189 1.999l-4.623 3.904c-4.887 5.79-28.284 18.67-28.284 18.67 11.302-.924 16.284-2.942 16.284-2.942 19.925-8.09 19.491-18.293 19.491-18.293 1.811-2.414 1.321-3.339 1.321-3.339Zm36.699 31.099c11.962-11.636-7.604-1.679-7.604-1.679-12.095 6.922-52.492 13.655-52.492 13.655-12.265.32-8.265 8.713-8.265 8.713 3.774-.094 6.585-1.113 6.585-1.113 13.208-.358 53.398-14.616 53.398-14.616 5.623-2.056 8.378-4.96 8.378-4.96m-27.85 17.709c-5.623 1.565-9.038 2.81-17.34 4.243-11.85 2.018-24.907 3.961-24.907 3.961-8.528-1.188-6.471 4.884-6.471 4.884.094 3.301 7.113 1.698 7.113 1.698 10.378-.283 36.171-6.148 36.171-6.148 7.83-1.207 14.944-4.602 19.151-7.11 7.661-4.583 8.736-8.714 8.736-8.714-1.773 1.038-5.679 2.433-8.868 3.546-6 2.037-13.585 3.64-13.585 3.64m-13.717 16.408c-7.038 1.603-15.039 2.282-15.039 2.282-9.434.245-20.698 2.433-20.698 2.433-7.001 2.546-5.491 6.751-5.491 6.751 1.868-.528 4.717-.132 4.717-.132 11.793.151 25.888-2.565 25.888-2.565 8.453-.773 15.811-2.206 20.661-3.847 9.377-2.131 14.358-10.278 14.358-10.278-3.339.452-8.434 2.206-12.66 3.168-6.491 1.452-11.736 2.188-11.736 2.188m-60.021 50.166c-7.076.189-6.944 4.904-6.944 4.904 3.321.377 7.548-.208 7.548-.208 12.283.623 16.849-5.167 16.849-5.167-5.66.151-17.453.471-17.453.471m8.189-12.013c-4.264-.83-6.774 1.527-5.585 2.979-1.302 4.282 3.849 2.735 3.849 2.735 5.66-.151 17.925-.471 17.925-.471 8.491-.227 12.114-5.979 12.114-5.979-3.755 1.037-28.303.736-28.303.736m38.039-24.593c-2.227.471-10.906 1.131-16.001 1.377-6.679.32-11.793.245-13.661.829-3.283 1.038-3.113 7.148-3.113 7.148 3.283-.566 7.548-.207 7.548-.207 15.604.999 31.076-2.245 31.076-2.245 15.944-3.715 20.453-11.391 20.453-11.391-6.547 2.094-26.302 4.489-26.302 4.489m-35.982 13.692c-2.378-.415-3.586 6.337-1.246 6.638 6.151.774 12.265-.32 12.265-.32 9.906-.264 14.623-.396 14.623-.396 14.151-.378 16.774-7.997 16.774-7.997-6.585.66-38.586 2.735-42.416 2.075m-34.096-46.168c.698 2.885 2.057 3.168 4.396 2.866l8.246-.301c1.962-.057 3.264-1.358 3.208-3.301-.057-1.961-2.623-3.225-4.567-3.187l-7.603.754c-1.944.038-3.736 1.207-3.68 3.169m-1.736 11.353c.057 1.962 1.415 2.546 3.359 2.508l8.151-.848c3.774-.095 4.019-2.395 4.019-2.395-.057-1.943-2.189-2.377-4.151-2.32l-7.868.207c-1.925.057-3.566.906-3.51 2.848m-1.415 12.297c.057 1.961.623 2.263 2.585 2.206l6.925-.189c1.943-.056 3.585-1.056 3.528-2.998-.056-1.962-1.094-2.414-3.056-2.358l-6.284.17c-1.962.057-3.736 1.226-3.698 3.169m-2.208 11.221c.057 1.961 2.284 2.527 4.227 2.489l5.472-1.018a2.75 2.75 0 0 0 2.755-2.904s.396-3.074-2.831-2.678l-6.585.811c-1.943.056-3.094 1.357-3.038 3.3m-1.905 11.617c.056 1.962.623 2.49 2.585 2.452l3.453-.094c1.943-.057 3.283-1.037 3.226-2.999v.245c-.056-2.112-.528-1.867-2.415-1.98l-4.094.113c-1.925.038-2.755 2.263-2.755 2.263m-3.189 10.147c.057 1.961 1.34 2.791 2.585 2.452l3.774-.095c1.943-.056 2.962-1.188 2.905-3.149-.056-1.943-1.717-2.226-3.679-2.188l-2.811.396c-1.963.038-2.774 2.584-2.774 2.584m-10.189 24.706c.038 1.169.925 1.622 2.094 1.603l2.831.245c1.17-.038 2.811-.867 2.773-2.037s-1.396-1.772-2.566-1.735l-4.019-.207c-1.17.019-1.151.962-1.113 2.131m3.094-7.619a2.11 2.11 0 0 0 2.17 2.055l3.529-.245c1.17-.038 2.339-.849 2.302-2.018-.038-1.169-1.547-1.773-2.717-1.735l-3.227-.226a2.11 2.11 0 0 0-2.057 2.169m4.019-8.6a2.114 2.114 0 0 0 2.189 2.055l4.717-.132a2.137 2.137 0 0 0 2.076-2.168 2.11 2.11 0 0 0-2.17-2.056l-4.717.132a2.106 2.106 0 0 0-2.095 2.169"/></g></svg>